<?xml version="1.0" encoding="UTF-8"?>
<svg id="Layer_1" data-name="Layer 1" xmlns="http://www.w3.org/2000/svg" viewBox="0 0 134 134">
  <defs>
    <style>
      .cls-1 {
        fill: #ec1c24;
      }

      .cls-1, .cls-2, .cls-3, .cls-4 {
        stroke-width: 0px;
      }

      .cls-2 {
        fill: none;
      }

      .cls-3 {
        fill: #1b75bb;
      }

      .cls-4 {
        fill: #fff;
      }
    </style>
  </defs>
  <path class="cls-3" d="M112.22,58.22c-1.55.76-2.48,2.4-2.3,4.12.16,1.53.25,3.08.25,4.66,0,23.84-19.33,43.17-43.17,43.17-23.82,0-43.17-19.35-43.17-43.17s19.33-43.17,43.17-43.17c11.36,0,21.7,4.39,29.41,11.57,1.35,1.25,3.37,1.45,4.94.49l6.22-3.78c2.29-1.39,2.68-4.56.79-6.45-10.46-10.47-24.87-16.99-40.8-17.14-32.06-.3-58.56,25.54-59.03,57.6-.49,33.28,26.83,60.3,60.21,59.33,31.45-.91,56.67-26.86,56.74-58.33,0-3.1-.23-6.15-.69-9.12-.42-2.74-3.41-4.27-5.9-3.05l-6.67,3.26Z"/>
  <path class="cls-2" d="M112.22,58.22c-1.55.76-2.48,2.4-2.3,4.12.16,1.53.25,3.08.25,4.66,0,23.84-19.33,43.17-43.17,43.17-23.82,0-43.17-19.35-43.17-43.17s19.33-43.17,43.17-43.17c11.36,0,21.7,4.39,29.41,11.57,1.35,1.25,3.37,1.45,4.94.49l6.22-3.78c2.29-1.39,2.68-4.56.79-6.45-10.46-10.47-24.87-16.99-40.8-17.14-32.06-.3-58.56,25.54-59.03,57.6-.49,33.28,26.83,60.3,60.21,59.33,31.45-.91,56.67-26.86,56.74-58.33,0-3.1-.23-6.15-.69-9.12-.42-2.74-3.41-4.27-5.9-3.05l-6.67,3.26Z"/>
  <polygon class="cls-4" points="43.37 26.58 41.33 23.46 41.47 27.03 40.93 27.39 37.77 25.87 39.76 28.93 38.63 29.67 35.24 24.46 36.24 23.81 40.3 25.78 40.11 21.29 41.1 20.65 44.5 25.85 43.37 26.58"/>
  <path class="cls-4" d="M48.83,22.44l-2.64,1.17.04,1.44-1.35.6v-6.8s1.31-.58,1.31-.58l5.06,4.55-1.38.61-1.04-.99ZM47.97,21.62l-1.87-1.77.06,2.57,1.8-.8Z"/>
  <polygon class="cls-4" points="49.94 16.8 51.32 16.38 52.76 21.22 55.75 20.32 56.08 21.44 51.72 22.75 49.94 16.8"/>
  <path class="cls-4" d="M55.52,14.49c-.16-.11-.27-.27-.31-.49-.04-.21-.01-.4.1-.56.11-.17.27-.27.48-.32.21-.04.4-.01.57.1.16.11.27.27.31.48.04.21.01.4-.1.57-.11.17-.27.27-.48.32-.21.04-.4.01-.57-.1M55.5,15.27l1.41-.29,1.26,6.08-1.41.29-1.26-6.08Z"/>
  <polygon class="cls-4" points="62.2 18.26 62.45 20.45 61.02 20.61 60.77 18.41 57.93 14.7 59.45 14.53 61.41 17.09 62.75 14.16 64.15 14 62.2 18.26"/>
  <polygon class="cls-4" points="70.03 19.11 70.02 20.27 65.21 20.22 65.27 14 69.97 14.05 69.96 15.2 66.69 15.17 66.68 16.52 69.56 16.55 69.55 17.67 66.67 17.64 66.65 19.08 70.03 19.11"/>
  <polygon class="cls-4" points="72.92 15.53 70.95 15.28 71.1 14.11 76.47 14.81 76.32 15.97 74.34 15.72 73.7 20.72 72.27 20.53 72.92 15.53"/>
  <path class="cls-4" d="M77.62,15.09l1.41.31-1.32,6.07-1.41-.31,1.32-6.07ZM77.96,14.39c-.11-.17-.14-.36-.09-.57.05-.21.15-.37.32-.48.17-.11.36-.14.57-.09.21.05.37.15.48.32.11.17.14.36.09.56-.05.21-.15.38-.32.49-.17.11-.36.14-.57.09-.21-.05-.37-.15-.48-.32"/>
  <polygon class="cls-4" points="86.36 17.6 84.41 23.5 83.29 23.13 81.53 18.57 80.35 22.16 79 21.71 80.94 15.81 82.07 16.18 83.82 20.73 85.01 17.15 86.36 17.6"/>
  <polygon class="cls-4" points="90.4 25.09 89.89 26.13 85.57 24.02 88.3 18.43 92.52 20.5 92.01 21.53 89.08 20.1 88.48 21.31 91.07 22.58 90.58 23.58 87.99 22.32 87.36 23.61 90.4 25.09"/>
  <path class="cls-4" d="M45.92,115.84c-.32-.26-.54-.52-.68-.79l.62-.57c.14.24.34.48.59.7.26.23.54.4.84.53.37.16.68.21.91.17.23-.04.39-.16.47-.35.06-.14.06-.28,0-.41-.06-.13-.17-.26-.3-.38-.14-.12-.33-.27-.57-.45-.35-.25-.62-.47-.82-.65-.2-.19-.34-.41-.44-.67-.09-.26-.07-.55.07-.87.11-.27.29-.49.53-.65.24-.16.54-.24.9-.24.36,0,.76.09,1.2.27.31.13.59.29.86.49.27.2.48.41.63.64l-.59.59c-.17-.22-.36-.41-.57-.58-.21-.16-.43-.29-.65-.39-.37-.15-.67-.21-.9-.16-.23.05-.39.17-.47.37-.06.14-.05.28.01.41.07.13.17.26.3.37.14.12.33.27.57.45.34.24.61.45.81.65.2.19.35.42.44.67.09.26.07.55-.06.86-.11.27-.29.49-.53.64-.24.16-.54.24-.9.24-.36,0-.76-.09-1.2-.27-.39-.16-.74-.37-1.05-.63"/>
  <path class="cls-4" d="M54.05,117.52l-2.61-.77-.86,1.03-1-.29,3.86-4.41.95.28.84,5.8-1.01-.3-.17-1.33ZM53.95,116.68l-.32-2.52-1.64,1.94,1.96.58Z"/>
  <polygon class="cls-4" points="61.95 114.92 61.07 120.17 60.08 120 60.45 117.75 57.68 117.29 57.3 119.54 56.31 119.37 57.18 114.12 58.18 114.29 57.82 116.46 60.59 116.92 60.95 114.75 61.95 114.92"/>
  <path class="cls-4" d="M63.23,114.99l1.01.08-.41,5.3-1.01-.08.41-5.3ZM63.39,114.33c-.1-.11-.14-.24-.12-.4.01-.16.07-.28.18-.37.11-.09.25-.13.41-.12.16.01.29.07.38.18.1.11.14.24.12.4-.01.16-.07.28-.18.37-.11.09-.25.13-.41.12-.16-.01-.29-.07-.38-.18"/>
  <path class="cls-4" d="M70.12,118.19c.18.22.27.5.27.84,0,.46-.18.82-.54,1.07-.36.25-.89.38-1.58.39l-2.7.02-.04-5.32,2.55-.02c.64,0,1.14.11,1.49.36.35.24.52.58.53,1.01,0,.26-.06.5-.18.7-.12.2-.29.36-.51.47.3.09.54.25.72.48M66.55,115.96v1.47s1.44,0,1.44,0c.35,0,.62-.07.81-.19.19-.12.28-.31.28-.54,0-.24-.1-.43-.29-.55-.19-.12-.46-.18-.81-.18h-1.43ZM69.37,118.94c0-.51-.4-.77-1.18-.76h-1.63s.01,1.55.01,1.55h1.63c.78-.02,1.17-.28,1.17-.79"/>
  <path class="cls-4" d="M71.31,114.34c-.11-.09-.18-.22-.19-.37-.01-.16.03-.29.12-.4.09-.11.22-.17.38-.19.16-.01.3.02.41.12.11.09.18.22.19.37.01.16-.03.29-.12.4-.09.11-.22.17-.38.19-.16.01-.3-.02-.41-.12M71.26,115.02l1.01-.09.48,5.3-1,.09-.48-5.3Z"/>
  <path class="cls-4" d="M77.72,119.23c-.49-.13-.9-.37-1.24-.73-.34-.35-.57-.78-.68-1.28s-.09-.99.06-1.45c.15-.46.42-.86.81-1.19.38-.33.84-.55,1.38-.67.54-.12,1.05-.12,1.54.02.49.13.9.37,1.24.72.34.35.57.78.68,1.29.11.51.09,1-.06,1.46-.16.46-.43.86-.81,1.18-.38.33-.84.55-1.38.67-.54.12-1.05.12-1.54-.02M79.97,117.95c.25-.22.42-.49.52-.8.1-.32.11-.65.03-.99-.08-.35-.23-.64-.45-.88-.22-.24-.5-.41-.81-.5-.32-.09-.65-.1-1.01-.02-.35.08-.65.23-.9.45-.25.22-.42.49-.52.8-.1.32-.11.65-.03.99.08.35.23.64.45.88.22.24.5.41.81.5.32.09.65.1,1.01.02.35-.08.66-.23.9-.45"/>
  <polygon class="cls-4" points="81.72 113.04 82.67 112.71 84.13 116.96 86.82 116.03 87.09 116.82 83.44 118.07 81.72 113.04"/>
  <path class="cls-4" d="M85.76,111.58l1.06-.45,1.2,3.35-.71.3-1.55-3.21ZM87.89,116.33c-.15-.06-.26-.17-.33-.32-.06-.15-.06-.31,0-.45.07-.15.18-.26.35-.33.16-.07.32-.07.47-.02.15.06.26.16.32.32.06.15.06.31,0,.46-.06.15-.18.26-.34.33-.17.07-.33.08-.48.02"/>
  <polygon class="cls-3" points="109.09 35.12 113.72 39.34 119.82 37.93 117.24 43.63 120.47 49 114.24 48.3 110.13 53.04 108.88 46.9 103.1 44.46 108.55 41.36 109.09 35.12"/>
  <polygon class="cls-2" points="109.09 35.12 113.72 39.34 119.82 37.93 117.24 43.63 120.47 49 114.24 48.3 110.13 53.04 108.88 46.9 103.1 44.46 108.55 41.36 109.09 35.12"/>
  <polygon class="cls-1" points="62.43 53.36 50.7 53.36 50.7 64.57 59.16 64.57 59.16 70.42 50.7 70.42 50.7 83.19 62.43 83.19 62.43 89.04 43.81 89.04 43.81 47.5 62.43 47.5 62.43 53.36"/>
  <polygon class="cls-1" points="74.37 89.04 65.64 47.5 72.6 47.5 77.85 74.1 82.49 47.5 89.24 47.5 81.46 89.04 74.37 89.04"/>
</svg>